<svg width="800" height="600" viewBox="0 0 800 600" xmlns="http://www.w3.org/2000/svg">
  <!-- 纯净的背景色 rgb(0,52,50) -->
  <rect width="800" height="600" fill="rgb(0,52,50)"/>
  
  <!-- 定义渐变和滤镜 -->
  <defs>
    <!-- 北极熊白色渐变 -->
    <radialGradient id="bearGradient" cx="0.3" cy="0.3" r="0.8">
      <stop offset="0%" stop-color="#ffffff"/>
      <stop offset="70%" stop-color="#f8f8f8"/>
      <stop offset="100%" stop-color="#e8e8e8"/>
    </radialGradient>
    
    <!-- 水波纹效果 -->
    <radialGradient id="rippleGradient" cx="0.5" cy="0.5" r="0.8">
      <stop offset="0%" stop-color="rgba(255,255,255,0.3)"/>
      <stop offset="50%" stop-color="rgba(255,255,255,0.1)"/>
      <stop offset="100%" stop-color="rgba(255,255,255,0)"/>
    </radialGradient>
    
    <!-- 模糊滤镜 -->
    <filter id="blur">
      <feGaussianBlur stdDeviation="2"/>
    </filter>
  </defs>
  
  <!-- 水波纹效果 - 较小的北极熊周围 -->
  <ellipse cx="280" cy="180" rx="45" ry="25" fill="url(#rippleGradient)" filter="url(#blur)" opacity="0.6"/>
  <ellipse cx="285" cy="185" rx="35" ry="20" fill="url(#rippleGradient)" filter="url(#blur)" opacity="0.4"/>
  
  <!-- 水波纹效果 - 较大的北极熊周围 -->
  <ellipse cx="520" cy="380" rx="80" ry="45" fill="url(#rippleGradient)" filter="url(#blur)" opacity="0.7"/>
  <ellipse cx="525" cy="385" rx="65" ry="35" fill="url(#rippleGradient)" filter="url(#blur)" opacity="0.5"/>
  <ellipse cx="530" cy="390" rx="50" ry="25" fill="url(#rippleGradient)" filter="url(#blur)" opacity="0.3"/>
  
  <!-- 较小的北极熊（上方） -->
  <g transform="translate(250, 150) scale(0.8) rotate(-10)">
    <!-- 身体 -->
    <ellipse cx="30" cy="25" rx="35" ry="20" fill="url(#bearGradient)"/>
    <!-- 头部 -->
    <circle cx="10" cy="15" r="18" fill="url(#bearGradient)"/>
    <!-- 鼻子 -->
    <circle cx="2" cy="12" r="2" fill="#2c2c2c"/>
    <!-- 眼睛 -->
    <circle cx="6" cy="8" r="1.5" fill="#2c2c2c"/>
    <circle cx="14" cy="10" r="1.5" fill="#2c2c2c"/>
    <!-- 耳朵 -->
    <circle cx="15" cy="2" r="4" fill="url(#bearGradient)"/>
    <circle cx="5" cy="3" r="4" fill="url(#bearGradient)"/>
    <!-- 四肢 -->
    <ellipse cx="15" cy="40" rx="8" ry="12" fill="url(#bearGradient)"/>
    <ellipse cx="45" cy="40" rx="8" ry="12" fill="url(#bearGradient)"/>
    <ellipse cx="10" cy="25" rx="6" ry="10" fill="url(#bearGradient)"/>
    <ellipse cx="50" cy="25" rx="6" ry="10" fill="url(#bearGradient)"/>
  </g>
  
  <!-- 较大的北极熊（下方） -->
  <g transform="translate(450, 320) scale(1.2) rotate(5)">
    <!-- 身体 -->
    <ellipse cx="35" cy="30" rx="45" ry="25" fill="url(#bearGradient)"/>
    <!-- 头部 -->
    <circle cx="10" cy="20" r="22" fill="url(#bearGradient)"/>
    <!-- 鼻子 -->
    <circle cx="0" cy="16" r="2.5" fill="#2c2c2c"/>
    <!-- 眼睛 -->
    <circle cx="5" cy="10" r="2" fill="#2c2c2c"/>
    <circle cx="17" cy="12" r="2" fill="#2c2c2c"/>
    <!-- 耳朵 -->
    <circle cx="18" cy="2" r="5" fill="url(#bearGradient)"/>
    <circle cx="4" cy="3" r="5" fill="url(#bearGradient)"/>
    <!-- 四肢 -->
    <ellipse cx="20" cy="50" rx="10" ry="15" fill="url(#bearGradient)"/>
    <ellipse cx="55" cy="50" rx="10" ry="15" fill="url(#bearGradient)"/>
    <ellipse cx="10" cy="30" rx="8" ry="12" fill="url(#bearGradient)"/>
    <ellipse cx="60" cy="30" rx="8" ry="12" fill="url(#bearGradient)"/>
  </g>
  
  <!-- 额外的水波纹细节 -->
  <ellipse cx="350" cy="280" rx="25" ry="12" fill="url(#rippleGradient)" filter="url(#blur)" opacity="0.3"/>
  <ellipse cx="600" cy="450" rx="30" ry="15" fill="url(#rippleGradient)" filter="url(#blur)" opacity="0.4"/>
</svg>